HIERARCHY
ROOT hip
{
  OFFSET 0 0 0
  CHANNELS 6 Xposition Yposition Zposition Zrotation Yrotation Xrotation
  JOINT abdomen
  {
    OFFSET 0 20.6881 -0.73152
    CHANNELS 3 Zrotation Xrotation Yrotation
    JOINT chest
    {
      OFFSET 0 11.7043 -0.48768
      CHANNELS 3 Zrotation Xrotation Yrotation
      JOINT neck
      {
        OFFSET 0 22.1894 -2.19456
        CHANNELS 3 Zrotation Xrotation Yrotation
        JOINT head
        {
          OFFSET -0.24384 7.07133 1.2192
          CHANNELS 3 Zrotation Xrotation Yrotation
          JOINT leftEye
          {
            OFFSET 4.14528 8.04674 8.04672
            CHANNELS 3 Zrotation Xrotation Yrotation
            End Site
            {
              OFFSET 1 0 0
            }
          }
          JOINT rightEye
          {
            OFFSET -3.6576 8.04674 8.04672
            CHANNELS 3 Zrotation Xrotation Yrotation
            End Site
            {
              OFFSET 1 0 0
            }
          }
        }
      }
      JOINT rCollar
      {
        OFFSET -2.68224 19.2634 -4.8768
        CHANNELS 3 Zrotation Xrotation Yrotation
        JOINT rShldr
        {
          OFFSET -8.77824 -1.95073 1.46304
          CHANNELS 3 Zrotation Xrotation Yrotation
          JOINT rForeArm
          {
            OFFSET -28.1742 -1.7115 0.48768
            CHANNELS 3 Zrotation Xrotation Yrotation
            JOINT rHand
            {
              OFFSET -22.5879 0.773209 7.07136
              CHANNELS 3 Zrotation Xrotation Yrotation
              JOINT rThumb1
              {
                OFFSET -1.2192 -0.487915 3.41376
                CHANNELS 3 Zrotation Xrotation Yrotation
                JOINT rThumb2
                {
                  OFFSET -3.37035 -0.52449 3.41376
                  CHANNELS 3 Zrotation Xrotation Yrotation
                  End Site
                  {
                    OFFSET -1.78271 -1.18214 1.43049
                  }
                }
              }
              JOINT rIndex1
              {
                OFFSET -7.75947 0.938293 5.60832
                CHANNELS 3 Zrotation Xrotation Yrotation
                JOINT rIndex2
                {
                  OFFSET -2.54057 -0.884171 1.56538
                  CHANNELS 3 Zrotation Xrotation Yrotation
                  End Site
                  {
                    OFFSET -1.62519 -0.234802 1.16502
                  }
                }
              }
              JOINT rMid1
              {
                OFFSET -8.24714 1.18213 3.41376
                CHANNELS 3 Zrotation Xrotation Yrotation
                JOINT rMid2
                {
                  OFFSET -3.10165 -0.590103 1.0647
                  CHANNELS 3 Zrotation Xrotation Yrotation
                  End Site
                  {
                    OFFSET -2.48547 -0.328903 0.83742
                  }
                }
              }
              JOINT rRing1
              {
                OFFSET -8.82822 0.546677 1.51678
                CHANNELS 3 Zrotation Xrotation Yrotation
                JOINT rRing2
                {
                  OFFSET -2.60934 -0.819778 -0.0198488
                  CHANNELS 3 Zrotation Xrotation Yrotation
                  End Site
                  {
                    OFFSET -2.33842 -0.294052 0.168128
                  }
                }
              }
              JOINT rPinky1
              {
                OFFSET -8.27202 -0.0477905 -0.4584
                CHANNELS 3 Zrotation Xrotation Yrotation
                JOINT rPinky2
                {
                  OFFSET -1.82734 -0.647385 -0.700984
                  CHANNELS 3 Zrotation Xrotation Yrotation
                  End Site
                  {
                    OFFSET -1.69225 -0.51767 -0.607171
                  }
                }
              }
            }
          }
        }
      }
      JOINT lCollar
      {
        OFFSET 2.68224 19.2634 -4.8768
        CHANNELS 3 Zrotation Xrotation Yrotation
        JOINT lShldr
        {
          OFFSET 8.77824 -1.95073 1.46304
          CHANNELS 3 Zrotation Xrotation Yrotation
          JOINT lForeArm
          {
            OFFSET 28.1742 -1.7115 0.48768
            CHANNELS 3 Zrotation Xrotation Yrotation
            JOINT lHand
            {
              OFFSET 22.5879 0.773209 7.07136
              CHANNELS 3 Zrotation Xrotation Yrotation
              JOINT lThumb1
              {
                OFFSET 1.2192 -0.487915 3.41376
                CHANNELS 3 Zrotation Xrotation Yrotation
                JOINT lThumb2
                {
                  OFFSET 3.37035 -0.52449 3.41376
                  CHANNELS 3 Zrotation Xrotation Yrotation
                  End Site
                  {
                    OFFSET 1.78271 -1.18214 1.43049
                  }
                }
              }
              JOINT lIndex1
              {
                OFFSET 7.75947 0.938293 5.60832
                CHANNELS 3 Zrotation Xrotation Yrotation
                JOINT lIndex2
                {
                  OFFSET 2.54057 -0.884171 1.56538
                  CHANNELS 3 Zrotation Xrotation Yrotation
                  End Site
                  {
                    OFFSET 1.62519 -0.234802 1.16502
                  }
                }
              }
              JOINT lMid1
              {
                OFFSET 8.24714 1.18213 3.41376
                CHANNELS 3 Zrotation Xrotation Yrotation
                JOINT lMid2
                {
                  OFFSET 3.10165 -0.590103 1.0647
                  CHANNELS 3 Zrotation Xrotation Yrotation
                  End Site
                  {
                    OFFSET 2.48547 -0.328903 0.83742
                  }
                }
              }
              JOINT lRing1
              {
                OFFSET 8.82822 0.546677 1.51678
                CHANNELS 3 Zrotation Xrotation Yrotation
                JOINT lRing2
                {
                  OFFSET 2.60934 -0.819778 -0.0198488
                  CHANNELS 3 Zrotation Xrotation Yrotation
                  End Site
                  {
                    OFFSET 2.33842 -0.294052 0.168128
                  }
                }
              }
              JOINT lPinky1
              {
                OFFSET 8.27202 -0.0477905 -0.4584
                CHANNELS 3 Zrotation Xrotation Yrotation
                JOINT lPinky2
                {
                  OFFSET 1.82734 -0.647385 -0.700984
                  CHANNELS 3 Zrotation Xrotation Yrotation
                  End Site
                  {
                    OFFSET 1.69225 -0.51767 -0.607171
                  }
                }
              }
            }
          }
        }
      }
    }
  }
  JOINT rButtock
  {
    OFFSET -8.77824 4.35084 1.2192
    CHANNELS 3 Zrotation Xrotation Yrotation
    JOINT rThigh
    {
      OFFSET 0 -1.70687 -2.19456
      CHANNELS 3 Zrotation Xrotation Yrotation
      JOINT rShin
      {
        OFFSET 0 -36.8199 0.73152
        CHANNELS 3 Zrotation Xrotation Yrotation
        JOINT rFoot
        {
          OFFSET 0.73152 -45.1104 -5.12064
          CHANNELS 3 Zrotation Xrotation Yrotation
          End Site
          {
            OFFSET -1.1221 -3.69964 12.103
          }
        }
      }
    }
  }
  JOINT lButtock
  {
    OFFSET 8.77824 4.35084 1.2192
    CHANNELS 3 Zrotation Xrotation Yrotation
    JOINT lThigh
    {
      OFFSET 0 -1.70687 -2.19456
      CHANNELS 3 Zrotation Xrotation Yrotation
      JOINT lShin
      {
        OFFSET 0 -36.8199 0.73152
        CHANNELS 3 Zrotation Xrotation Yrotation
        JOINT lFoot
        {
          OFFSET -0.73152 -45.1104 -5.12064
          CHANNELS 3 Zrotation Xrotation Yrotation
          End Site
          {
            OFFSET 1.1221 -3.69964 12.103
          }
        }
      }
    }
  }
}
MOTION
Frames:	7
Frame Time:	0.00833333
14.583000000000002 75.187 9.78499 -0.0 -0.0 -0.0 -0.0 0.0 -0.0 0.0 -0.0 0.0 11.917935 8.05281 90.608235 -7.925217 12.00247 -90.615698 -0.0 -0.0 0.0 -0.0 -0.0 0.0 -80.1661 68.371792 83.260848 -155.929037 14.033718 178.186086 -161.160185 -0.004765 161.323078 46.039455 -64.736384 32.903638 -5.433768 5.264911 1.077842 -37.052464 24.351617 35.471802 -2.68634 4.226753 1.583637 -1.833927 2.088266 -0.560773 68.983989 -80.15399 40.578188 -163.566431 -4.503877 140.042561 0.000171 0.022623 0.007107 -165.709375 -0.589234 171.853374 -148.607913 23.708543 -144.77678 -92.36257 -49.477252 -93.620137 9.651699 34.836178 -11.199233 164.452868 -27.575476 176.062683 -173.104302 82.712246 169.976125 6.012437 18.848884 -0.347178 166.631339 -4.304864 -89.77151 154.247565 0.687605 -78.726754 -88.792192 -75.499035 -40.049684 6.250793 25.982201 -13.217677 -89.035113 -81.393384 -59.759886 164.553837 -7.548094 -140.318746 -0.000474 0.063775 -0.020036 164.829077 -64.146943 178.668792 1.149411 -2.914417 1.065731 -25.802897 75.660647 -6.561353 -180.0 75.749642 -0.0 -180.0 75.749642 -0.0 3.093813 0.300867 27.366401 166.060608 -45.614781 33.187858 -180.0 75.749642 -0.0 -180.0 75.749642 -0.0 2.74577 11.919568 137.880989 -125.013996 -18.562674 143.958933
14.607699999999998 75.0037 9.70542 -0.0 -0.0 -0.0 -0.0 0.0 -0.0 0.0 -0.0 0.0 11.917935 8.05281 90.608235 -7.925217 12.00247 -90.615698 -0.0 -0.0 0.0 -0.0 -0.0 0.0 -80.1661 68.371792 83.260848 -155.929037 14.033718 178.186086 -161.160185 -0.004765 161.323078 46.039455 -64.736384 32.903638 -5.433768 5.264911 1.077842 -37.052464 24.351617 35.471802 -2.68634 4.226753 1.583637 -1.833927 2.088266 -0.560773 68.983989 -80.15399 40.578188 -163.566431 -4.503877 140.042561 0.000171 0.022623 0.007107 -165.709375 -0.589234 171.853374 -148.607913 23.708543 -144.77678 -92.36257 -49.477252 -93.620137 9.651699 34.836178 -11.199233 164.452868 -27.575476 176.062683 -173.104302 82.712246 169.976125 6.012437 18.848884 -0.347178 166.631339 -4.304864 -89.77151 154.247565 0.687605 -78.726754 -88.792192 -75.499035 -40.049684 6.250793 25.982201 -13.217677 -89.035113 -81.393384 -59.759886 164.553837 -7.548094 -140.318746 -0.000474 0.063775 -0.020036 164.829077 -64.146943 178.668792 1.149411 -2.914417 1.065731 -25.802897 75.660647 -6.561353 -180.0 75.749642 -0.0 -180.0 75.749642 -0.0 3.093813 0.300867 27.366401 166.060608 -45.614781 33.187858 -180.0 75.749642 -0.0 -180.0 75.749642 -0.0 2.74577 11.919568 137.880989 -125.013996 -18.562674 143.958933
14.6425 74.8202 9.6143 -0.0 0.0 -0.0 -0.0 -4.771896 -180.0 -0.0 -4.771896 -180.0 -7.839959 7.474454 -64.637578 10.095103 3.902534 64.805654 0.0 0.0 0.0 0.0 0.0 0.0 -13.015985 41.250126 14.798846 -165.741594 76.249954 177.194758 101.073869 72.125065 -119.18988 -157.190802 56.999957 132.732797 -78.030619 38.689342 42.41267 160.156263 -51.563992 69.810713 45.282556 -63.865437 4.306423 90.013065 -54.410417 36.613235 -160.09819 -4.901163 142.968881 12.990087 -19.835441 -1.31588 -145.12196 1.973689 -179.748387 -29.043433 87.687348 52.375374 -145.694221 13.73185 -142.282271 82.560648 84.527524 -41.699444 13.015985 41.250126 -14.798846 13.257766 -74.820857 25.855698 171.556396 7.012728 -145.121155 -161.635782 -37.413716 -138.967605 -51.059793 -41.203951 -12.856726 103.407866 35.082896 -76.760027 173.659579 -52.758388 -119.868112 -45.690646 -33.931614 1.972294 160.09819 -4.901163 -142.968881 164.872465 -19.554283 -144.070269 0.006679 3.473835 -1.091901 165.959805 -0.459844 -172.495891 148.74804 24.215414 144.892798 -74.238663 83.460634 34.071878 -0.0 0.0 -0.0 -0.0 -0.0 -0.0 -2.721753 1.041334 -25.607042 -61.283261 -29.412592 30.686999 -0.0 0.0 -0.0 -0.0 -0.0 -0.0 -7.246024 4.668533 -81.805951 150.150004 -25.33996 -102.549517
14.688800000000002 74.6403 9.50936 -0.0 0.0 -0.0 -0.0 -4.771896 -180.0 -0.0 -4.771896 -180.0 -7.839959 7.474454 -64.637578 10.095103 3.902534 64.805654 0.0 0.0 0.0 0.0 0.0 0.0 -13.015985 41.250126 14.798846 -165.741594 76.249954 177.194758 111.837922 71.08523 -129.523246 -153.659414 60.030807 129.835887 51.059793 -41.203951 12.856726 -6.47244 -37.382934 -29.524953 -77.667448 43.02965 64.538509 3.20502 4.921313 -13.196165 -169.08961 -33.247392 145.374931 -35.402752 54.927053 33.00557 -0.006699 3.47564 1.092469 -164.50475 17.380493 170.016112 -118.627184 -35.449999 -116.545508 -143.822446 7.492295 -143.216952 13.015985 41.250126 -14.798846 13.257766 -74.820857 25.855698 -77.384741 -69.277532 -52.818502 153.910952 59.83432 -130.045952 178.51928 -16.064275 -89.475724 95.729218 15.489932 -37.974543 26.599783 30.073055 -19.414608 -128.078945 -65.746683 -81.369776 -3.77609 -11.559351 1.812841 -15.559095 -42.474545 -0.829078 0.000473 -0.060845 0.019116 68.80654 -86.848418 80.015728 157.329919 57.246404 150.511839 -62.918232 81.025567 24.989894 -0.0 0.0 -0.0 -0.0 -0.0 -0.0 6.649139 3.263768 68.510317 -153.66999 -74.282849 103.969817 -0.0 0.0 -0.0 -0.0 -0.0 -0.0 -6.882802 3.713377 -72.914422 145.16991 20.204263 -77.930235
14.7449 74.4671 9.38821 0.0 -0.0 0.0 -0.0 -4.771896 -180.0 0.0 -4.771896 -180.0 11.834661 7.659295 88.332751 -8.002004 11.607489 -88.313122 0.0 -0.0 -0.0 0.0 -0.0 -0.0 -142.973735 39.431617 147.390037 -175.535084 -76.940274 157.383081 -2.624191 -19.743399 -3.19914 2.886188 -9.05235 0.539502 -78.030619 38.689342 42.41267 -41.558741 -0.476919 43.216983 -14.228542 19.203392 9.559881 -107.838108 49.346043 75.586652 34.587821 -70.943799 9.314143 1.467972 1.652959 3.362998 0.004877 1.769515 0.555887 -165.90358 -1.504586 172.298733 -152.200278 37.330087 -147.582714 4.882623 2.184121 -2.303983 80.1661 68.371792 -83.260848 74.052472 86.559486 -93.568899 173.911871 0.579098 -178.248086 0.916788 2.934814 0.076977 -71.831195 -48.263725 -25.791675 156.560342 -31.054837 -129.246361 140.164771 2.326489 -115.87806 32.011196 57.39458 -24.311548 -23.903801 -61.333833 -1.399383 10.146821 25.257385 -9.08616 0.000142 -0.018533 0.005823 0.016791 0.25284 -0.035327 152.874681 39.991916 148.058988 20.666224 -36.496336 24.281635 -0.0 0.0 0.0 -0.0 -2.27635 -180.0 -4.055723 -2.993391 -143.675094 3.997592 -5.411145 -39.432262 -0.0 0.0 0.0 -0.0 -2.27635 -180.0 -4.785422 -5.497151 -128.291216 150.738228 -60.933132 26.996815
14.8081 74.3037 9.24581 -0.0 -0.0 -0.0 -0.0 0.0 -0.0 0.0 -0.0 0.0 11.917935 8.05281 90.608235 -7.925217 12.00247 -90.615698 -0.0 -0.0 0.0 -0.0 -0.0 0.0 -80.1661 68.371792 83.260848 -155.929037 14.033718 178.186086 -161.151285 0.391303 161.33599 45.332099 -64.48152 32.251666 -85.829417 38.630721 47.955432 -99.906851 -7.735664 69.753961 -108.427673 34.160977 91.742903 -79.503256 63.34332 60.715221 -36.036059 51.723116 29.832321 -40.069278 60.2871 32.287882 0.000474 0.063775 0.020036 -166.954556 -34.962572 175.913457 44.735211 86.377934 -5.369007 67.484801 81.844252 -30.920633 9.651699 34.836178 -11.199233 164.452868 -27.575476 176.062683 168.639599 69.075787 -171.719639 1.660838 5.318829 0.104999 6.581133 6.344846 -1.36571 13.382816 12.96368 -15.160577 166.821797 -43.973781 -122.061691 167.534472 -41.544162 -110.317435 36.036059 51.723116 -29.832321 2.585961 14.44077 0.134276 -0.004875 1.770451 -0.556181 1.352969 -62.895107 9.879607 -1.298213 3.491578 -1.192968 162.195746 55.172075 149.754102 -180.0 75.749642 -0.0 -180.0 75.749642 -0.0 7.244654 4.663875 81.763736 -6.192376 -19.936713 -90.004406 -180.0 75.749642 -0.0 -180.0 75.749642 -0.0 -7.510295 6.347106 -96.640747 15.35512 -23.00241 108.235056
14.870700000000001 74.1541 9.0773 -0.0 0.0 -0.0 -0.0 -4.771896 -180.0 -0.0 -4.771896 -180.0 7.93712 1.756887 47.545503 -6.661151 4.668205 -47.39558 0.0 -0.0 -0.0 0.0 -0.0 -0.0 -143.620413 38.233348 148.080496 -155.393326 -26.092474 171.292274 -2.309576 25.927849 1.964885 1.393949 -4.422853 0.205391 -93.743665 37.963835 53.548561 145.3415 -49.892173 64.995736 -77.667448 43.02965 64.538509 -10.83693 31.973697 -4.98951 34.587821 -70.943799 9.314143 1.919382 0.530382 3.202665 -70.641094 72.965227 88.425717 -125.398591 -63.749071 -141.699627 -1.203484 -3.047547 -1.116064 -150.11604 12.9368 -144.126935 9.651699 34.836178 -11.199233 165.574743 -13.577932 177.316802 173.210523 58.411914 -176.289562 2.679714 8.569739 0.093012 78.030619 38.689342 -42.41267 -73.941362 -48.575812 -27.730416 -112.65811 -76.285796 -61.487487 -62.159013 -44.80246 -12.92266 12.843095 28.997118 -9.149609 42.240851 59.465307 -33.418965 145.119721 0.310087 179.225753 144.688883 -4.509054 178.579328 -32.017443 83.320556 -6.228541 -62.65451 81.30583 26.539098 -0.0 0.0 -0.0 -0.0 -0.0 -0.0 6.649139 3.263768 68.510317 -153.66999 -74.282849 103.969817 -0.0 0.0 -0.0 -0.0 -0.0 -0.0 -6.882802 3.713377 -72.914422 145.16991 20.204263 -77.930235
